<svg viewBox="0 0 298.38 52.37" xmlns="http://www.w3.org/2000/svg"><defs><style>.cls-1{fill:#e1251b;}.cls-2{fill:#2d2a26;}</style></defs><title>Asset 4</title><g data-sanitized-data-name="Layer 2" data-name="Layer 2" id="Layer_2"><g data-sanitized-data-name="Layer 1" data-name="Layer 1" id="Layer_1-2"><path d="M73.87,8.06S62.8,12.88,52.32,36.53C41.78,60.41,6.15,56.65.88,29.6c0,0-3.09-13.78,2.33-21.39,0,0-2,3.84-.83,10.4,0,0,4.52-15,18-18.61,0,0-12.63,6.54-11.9,21.53A26,26,0,0,0,13.94,36.1C17.69,41,24.2,46.41,33.87,44.52c0,0,7.31-.83,16-13.64S66,10.32,73.87,8.06Z" class="cls-1"></path><path d="M16.55,35.34s-15.91-21,5.79-33c0,0,12.73-6.11,23.36,3.46,0,0-14.54-5-24.86,4.9S14.51,29.61,16.55,35.34Z" class="cls-1"></path><path d="M32.21,43S12,38.27,20.16,24.48c0,0,3.92-5.35,3.92-7.68a32.93,32.93,0,0,1,.52,13.71C24.6,30.58,22.87,36.68,32.21,43Z" class="cls-1"></path><path d="M108,22.2c.27-5.25-2.49-8.36-8.23-9.33h-19L78,40.32h8.23L87,31.74h7.26L98,40.39h9.27l-3.88-9.06A11,11,0,0,0,108,22.2ZM98,24.48H87.91l.48-4.77H98.55c1.59.28,2.29,1.11,2.08,2.56A2.38,2.38,0,0,1,98,24.48Z" class="cls-2"></path><path d="M130.91,12.8h-9.26c-5.88.21-9.34,3.18-10.17,8.78l-1.86,18.67h7.6l.83-8.37,12.17.07-.83,8.37h7.26l1.87-18.81C138.8,16.05,136.31,13.14,130.91,12.8Zm.21,10L130.84,25H118.68l.34-2.91a2.61,2.61,0,0,1,2.84-2.9h7.39C130.91,19.44,131.54,20.61,131.12,22.75Z" class="cls-2"></path><polygon points="139.9 40.39 139.91 40.32 139.9 40.32 139.9 40.39" class="cls-2"></polygon><path d="M167.28,12.87l-24.61-.07-2.76,27.52h7.53l1.94-19.71h5.94l-1.93,19.71h6.91l2-19.64H166c1.59,0,2.21,1,1.8,3l-1.66,16.67h7L175,21.58C175.3,15.63,172.75,12.73,167.28,12.87Z" class="cls-2"></path><path d="M197.92,12.87h-19l-2.77,27.45h8.23l.83-8.58h11.34c5.67-.34,8.85-3.52,9.48-9.47S203.93,13.14,197.92,12.87Zm1,9.4a2.35,2.35,0,0,1-2.62,2.14l-10.17.07.49-4.77h10.16C198.4,20,199.09,20.82,198.88,22.27Z" class="cls-2"></path><polygon points="207.39 40.25 207.4 40.18 207.39 40.18 207.39 40.25" class="cls-2"></polygon><path d="M228.68,12.8h-9.26c-5.88.21-9.34,3.18-10.16,8.78l-1.86,18.6H215l.83-8.37,12.17.07-.83,8.44h7.26l1.87-18.81C236.57,16.05,234.08,13.14,228.68,12.8Zm.28,10L228.68,25H216.51l.35-2.91c-.07-1.86.9-2.83,2.84-2.9h7.39C228.75,19.44,229.38,20.61,229,22.75Z" class="cls-2"></path><path d="M238.57,26.56c-.9,8.85,1.45,13.41,7.06,13.76H265l1.52-15.21h-7.19l-.83,8H248.05a2.35,2.35,0,0,1-1.94-2.08,22.73,22.73,0,0,1,1.59-10.16,3,3,0,0,1,2.7-1.32h16.66l.69-6.7H248.88C242.86,13.14,239.4,17.71,238.57,26.56Z" class="cls-2"></path><path d="M269.27,26.63Q268,39.8,276.33,40.32h19.36l.62-7.19H278.68c-.83-.14-1.32-.83-1.39-2.15V29.46l19.36.07.7-6.57H277.78l.69-2.35c.28-.76,1.17-1.11,2.56-1h16.66l.69-6.63h-18.8C273.56,13.28,270.1,17.85,269.27,26.63Z" class="cls-2"></path></g></g></svg>